<?xml version="1.0" standalone="no"?><!DOCTYPE svg PUBLIC "-//W3C//DTD SVG 1.1//EN" "http://www.w3.org/Graphics/SVG/1.1/DTD/svg11.dtd"><svg t="1597920820536" class="icon" viewBox="0 0 1024 1024" version="1.1" xmlns="http://www.w3.org/2000/svg" p-id="2774" xmlns:xlink="http://www.w3.org/1999/xlink" width="200" height="200"><defs><style type="text/css"></style></defs><path d="M992 890.24H32a32 32 0 0 1-32-32V640a32 32 0 0 1 32-32A97.28 97.28 0 0 0 131.2 512 96.64 96.64 0 0 0 32 410.24a32 32 0 0 1-32-32V160A32 32 0 0 1 32 128h960a32 32 0 0 1 32 32v218.24a32 32 0 0 1-32 32 99.2 99.2 0 1 0 0 197.76 32 32 0 0 1 32 32v218.24a32 32 0 0 1-32 32z m-928-64h896v-157.44a162.56 162.56 0 0 1 0-320V192H64v157.44a162.56 162.56 0 0 1 0 320z" p-id="2775"></path><path d="M384 672a32 32 0 0 1-22.4-54.4l258.56-261.76a32 32 0 0 1 45.44 0 32 32 0 0 1 0 44.8l-261.76 261.76a32.64 32.64 0 0 1-19.84 9.6z" p-id="2776"></path><path d="M403.2 453.76a97.28 97.28 0 1 1 97.28-97.28A97.92 97.92 0 0 1 403.2 453.76z m0-128a33.28 33.28 0 1 0 33.28 33.28 33.28 33.28 0 0 0-33.28-35.84zM620.8 759.04a97.28 97.28 0 1 1 97.92-97.28 97.28 97.28 0 0 1-97.92 97.28z m0-128a33.28 33.28 0 1 0 33.92 33.28 33.28 33.28 0 0 0-33.92-35.84z" p-id="2777"></path></svg>