<?xml version="1.0" standalone="no"?><!DOCTYPE svg PUBLIC "-//W3C//DTD SVG 1.1//EN" "http://www.w3.org/Graphics/SVG/1.1/DTD/svg11.dtd"><svg t="1597920631046" class="icon" viewBox="0 0 1024 1024" version="1.1" xmlns="http://www.w3.org/2000/svg" p-id="1174" xmlns:xlink="http://www.w3.org/1999/xlink" width="200" height="200"><defs><style type="text/css"></style></defs><path d="M639.04256 972.68736L59.88864 785.38752l18.79552 24.68352V219.66336l-32.40448 24.68352 579.15392 140.04224-18.79552-24.68352v637.66528c0 33.01376 51.2 33.01376 51.2 0V359.7056c0-11.1104-7.77728-22.02112-18.79552-24.68352-193.05472-46.68928-386.10432-93.36832-579.15904-140.04736-16.10752-3.89632-32.40448 7.64928-32.40448 24.68352v590.40768c0 11.77088 7.88992 21.16096 18.79552 24.68352l579.15392 187.29984c31.50848 10.19392 44.89216-39.24992 13.61408-49.36192z" p-id="1175"></path><path d="M955.37152 103.94624l-311.16288 216.3456c-13.41952 9.33376-37.57056 20.85888-37.57056 39.46496V997.37088c0 22.60992 27.75552 33.52064 43.6992 18.0992l275.75808-266.56768 53.01248-51.2512c9.27232-8.96 14.78144-17.792 14.78144-31.2064V501.40672 126.04928c0-33.01888-51.2-33.01888-51.2 0v546.4576l7.5008-18.0992-336.05632 324.85888 43.6992 18.0992V359.70048l-12.68224 22.10304 336.05632-233.6512c26.90048-18.69824 1.34656-63.10912-25.83552-44.20608z" p-id="1176"></path><path d="M59.89888 231.3216l355.57376-122.63424 139.10528-47.97952c-1.95072 0.67072-19.968-1.81248-6.3488 0.91648l28.43648 5.69344 99.34336 19.8912 276.59264 55.3728c32.23552 6.45632 45.97248-42.89024 13.60896-49.37216L593.26464 18.54464c-12.88192-2.57536-37.90336-12.17024-51.31264-7.54688l-34.94912 12.05248-203.23328 70.0928L46.28992 181.94944c-31.02208 10.69568-17.69472 60.16512 13.60896 49.37216zM206.66368 428.35968l250.42944 62.26944c32.04608 7.97184 45.63968-41.40544 13.60896-49.37216L220.27264 378.98752c-32.04608-7.97184-45.63968 41.40544-13.60896 49.37216z" p-id="1177"></path><path d="M340.90496 137.86624l452.52096 106.47552c32.11264 7.55712 45.7472-41.80992 13.60896-49.37216L354.51392 88.49408c-32.10752-7.55712-45.73696 41.80992-13.60896 49.37216z" p-id="1178"></path></svg>